<?xml version="1.0" encoding="utf-8"?>
<!-- Generator: Adobe Illustrator 16.0.0, SVG Export Plug-In . SVG Version: 6.00 Build 0)  -->
<!DOCTYPE svg PUBLIC "-//W3C//DTD SVG 1.1//EN" "http://www.w3.org/Graphics/SVG/1.1/DTD/svg11.dtd">
<svg version="1.1" id="圖層_1" xmlns="http://www.w3.org/2000/svg" xmlns:xlink="http://www.w3.org/1999/xlink" x="0px" y="0px"
	 width="595.281px" height="595.28px" viewBox="0 123.305 595.281 595.28" enable-background="new 0 123.305 595.281 595.28"
	 xml:space="preserve">
<g id="Logo_Centered">
	<g>
		<g>
			<path fill="#57BCBB" d="M524.181,343.738c-5.283-2.985-10.76-5.702-16.43-8.077c0.879,5.785,1.496,11.64,1.764,17.617v0.041
				c0.152,2.91,0.234,5.819,0.234,8.729c0,1.723-0.041,3.445-0.117,5.168c-0.117,5.785-0.576,11.488-1.305,17.115
				c-0.535,4.481-1.303,8.922-2.182,13.328c-1.146,5.518-2.525,10.911-4.172,16.237c-4.289,14.055-10.344,27.342-17.811,39.633
				c-2.682,4.406-5.551,8.654-8.619,12.792c-2.375,3.294-4.9,6.513-7.584,9.615c-3.293,3.904-6.779,7.658-10.416,11.262
				c-2.91,2.91-5.938,5.744-9.08,8.387c-3.904,3.41-8.01,6.622-12.217,9.614c3.906,3.521,8.002,6.856,12.217,10.075
				c4.213-3.178,8.311-6.514,12.256-10.034c3.145-2.759,6.17-5.627,9.08-8.619c3.637-3.638,7.082-7.433,10.418-11.372
				c2.643-3.143,5.168-6.354,7.625-9.69c3.025-4.097,5.861-8.311,8.578-12.676c7.049-11.371,12.984-23.587,17.541-36.421
				c2.031-5.627,3.795-11.413,5.285-17.308c1.188-4.674,2.182-9.423,2.984-14.206c1.037-5.896,1.799-11.907,2.258-18.001
				c0.385-4.825,0.576-9.725,0.576-14.632v-0.268c0-6.163-0.309-12.291-0.877-18.304L524.181,343.738z"/>
			<path fill="#0C95D3" d="M428.96,475.937c-2.684-3.103-5.209-6.321-7.584-9.615c-3.061-4.138-5.936-8.386-8.619-12.792
				c-7.467-12.291-13.52-25.578-17.809-39.633c-1.648-5.326-3.027-10.72-4.174-16.237c-0.879-4.406-1.646-8.847-2.182-13.328
				c-0.729-5.627-1.188-11.337-1.305-17.115c-0.074-1.723-0.115-3.445-0.115-5.168c0-2.91,0.074-5.82,0.232-8.729v-0.041
				c4.098-2.031,8.311-3.871,12.641-5.477c5.168-1.915,10.494-3.563,15.936-4.9c4.174-0.995,8.428-1.798,12.752-2.416
				c5.174-0.769,10.418-1.229,15.783-1.379c1.305-0.041,2.643-0.041,3.947-0.041s2.643,0,3.945,0.041
				c5.361,0.15,10.611,0.61,15.777,1.379c4.332,0.611,8.58,1.414,12.76,2.416c5.434,1.338,10.76,2.985,15.934,4.9
				c-0.494-5.744-1.303-11.413-2.373-17.006c-5.402-1.723-10.92-3.103-16.588-4.214c-4.33-0.845-8.736-1.496-13.211-1.956
				c-5.326-0.577-10.686-0.879-16.162-0.879h-0.15c-5.477,0-10.844,0.309-16.162,0.879c-4.482,0.46-8.887,1.111-13.211,1.956
				c-5.668,1.111-11.188,2.491-16.588,4.214c-4.521,1.413-8.922,3.026-13.252,4.865h-0.041c-5.668,2.375-11.104,5.092-16.395,8.077
				c-0.578,6.013-0.879,12.141-0.879,18.304v0.268c0,4.9,0.191,9.8,0.576,14.632c0.459,6.087,1.229,12.099,2.258,18.001
				c0.803,4.79,1.799,9.498,3.027,14.172c1.453,5.895,3.219,11.68,5.25,17.308c4.557,12.827,10.492,25.043,17.582,36.421
				c2.684,4.365,5.518,8.579,8.578,12.676c2.416,3.328,4.941,6.547,7.625,9.69c3.293,3.946,6.779,7.775,10.377,11.413
				c4.254-2.91,8.352-6.088,12.256-9.423c-3.637-3.604-7.123-7.351-10.418-11.262H428.96z"/>
			<path fill="#FFFFFF" d="M448.457,435.46c3.178-4.976,6.055-10.184,8.58-15.585c3.602-7.584,6.471-15.586,8.619-23.855
				c1.229-4.9,2.223-9.917,2.91-15.05c-4.941-1.036-10-1.688-15.168-1.956c-1.646-0.075-3.293-0.117-4.941-0.117
				c-1.646,0-3.293,0.042-4.941,0.117c-5.166,0.268-10.225,0.92-15.166,1.956c0.686,5.133,1.688,10.149,2.91,15.05
				c2.148,8.27,5.016,16.278,8.619,23.855C442.404,425.276,445.281,430.484,448.457,435.46z"/>
			<path fill="#FFFFFF" d="M416.402,384.298c-5.018,1.688-9.883,3.829-14.48,6.32c0.918,5.326,2.105,10.535,3.527,15.661
				c3.828,13.63,9.381,26.58,16.395,38.528c2.643,4.557,5.518,8.963,8.578,13.177c2.416,3.369,4.982,6.588,7.625,9.725
				c3.295,3.904,6.781,7.658,10.418,11.221c3.637-3.563,7.123-7.316,10.418-11.221c2.643-3.144,5.209-6.355,7.625-9.725
				c3.066-4.214,5.936-8.62,8.578-13.177c7.006-11.948,12.564-24.892,16.395-38.528c1.414-5.133,2.602-10.342,3.521-15.661
				c0.768-4.248,1.338-8.503,1.764-12.826v-0.041c0.459-5.168,0.727-10.418,0.727-15.702v-0.803
				c-4.982-2.107-10.15-3.905-15.434-5.401c-4.063-1.112-8.236-2.031-12.449-2.759c-5.059-0.845-10.227-1.414-15.477-1.647
				c-1.873-0.075-3.754-0.116-5.668-0.116s-3.795,0.041-5.668,0.116c-5.25,0.227-10.418,0.804-15.477,1.682
				c-4.256,0.687-8.387,1.605-12.449,2.718v0.041c-5.326,1.455-10.459,3.253-15.434,5.401v0.769c0,5.284,0.268,10.534,0.727,15.702
				c4.75-2.334,9.732-4.331,14.898-5.971c3.947-1.229,8.002-2.258,12.141-3.061c4.941-0.995,10.033-1.606,15.242-1.874
				c1.99-0.151,3.98-0.192,6.012-0.192s4.021,0.041,6.012,0.192c5.209,0.268,10.303,0.879,15.244,1.874
				c4.137,0.803,8.193,1.839,12.139,3.061c-0.268,4.214-0.727,8.386-1.338,12.483v0.041c-0.768,5.168-1.797,10.185-3.102,15.126
				c-2.951,11.488-7.281,22.441-12.758,32.667c-2.602,4.865-5.477,9.573-8.578,14.089c-2.375,3.486-4.941,6.856-7.625,10.15
				c-2.684-3.294-5.25-6.664-7.625-10.15c-3.102-4.516-5.977-9.23-8.578-14.089c-5.477-10.226-9.807-21.179-12.758-32.667
				c-1.305-4.941-2.334-9.958-3.102-15.126L416.402,384.298z"/>
		</g>
		<g>
			<rect x="301.189" y="357.903" fill="#FFFFFF" width="22.982" height="121.596"/>
			<path fill="#FFFFFF" d="M125.075,358.706v79.04c0,12.463-10.15,22.612-22.613,22.612c-6.238,0-11.873-2.539-15.977-6.636
				L70.22,469.987c8.249,8.249,19.648,13.354,32.235,13.354s23.985-5.105,32.234-13.354s13.355-19.648,13.355-32.234v-79.04h-22.983
				L125.075,358.706z"/>
			<path fill="#FFFFFF" d="M204.175,447.594c-15.928-15.929-15.928-41.85,0-57.778c15.929-15.929,41.85-15.929,57.778,0l0,0
				l16.251-16.251l0,0c-24.933-24.933-65.348-24.933-90.28,0s-24.933,65.348,0,90.28s65.348,24.933,90.28,0l-16.251-16.251
				C246.025,463.522,220.104,463.522,204.175,447.594L204.175,447.594z"/>
		</g>
	</g>
	<g>
		<path fill="#FFFFFF" d="M523.201,464.819v1.394h3.932v12.867h1.523v-12.867h3.898v-1.394h-9.348H523.201z"/>
		<polygon fill="#FFFFFF" points="547.666,464.819 547.666,479.08 546.115,479.08 546.115,467.77 541.359,474.709 541.228,474.709 
			536.48,467.722 536.48,479.08 534.908,479.08 534.908,464.819 536.287,464.819 541.298,472.142 546.3,464.819 		"/>
	</g>
</g>
</svg>
