<?xml version="1.0" encoding="utf-8"?>
<!-- Generator: Adobe Illustrator 16.0.0, SVG Export Plug-In . SVG Version: 6.00 Build 0)  -->
<!DOCTYPE svg PUBLIC "-//W3C//DTD SVG 1.1//EN" "http://www.w3.org/Graphics/SVG/1.1/DTD/svg11.dtd">
<svg version="1.1" id="圖層_1" xmlns="http://www.w3.org/2000/svg" xmlns:xlink="http://www.w3.org/1999/xlink" x="0px" y="0px"
	 width="595.281px" height="841.891px" viewBox="0 0 595.281 841.891" enable-background="new 0 0 595.281 841.891"
	 xml:space="preserve">
<g id="Logo_Centered">
	<g>
		<g>
			<path fill="#57BCBB" d="M524.181,343.738c-5.283-2.985-10.76-5.702-16.43-8.077c0.879,5.785,1.496,11.64,1.764,17.617v0.041
				c0.152,2.91,0.234,5.819,0.234,8.729c0,1.723-0.041,3.445-0.117,5.168c-0.117,5.785-0.576,11.488-1.305,17.115
				c-0.535,4.481-1.303,8.922-2.182,13.328c-1.146,5.518-2.525,10.911-4.172,16.237c-4.289,14.055-10.344,27.342-17.811,39.633
				c-2.682,4.406-5.551,8.654-8.619,12.792c-2.375,3.294-4.9,6.513-7.584,9.615c-3.293,3.904-6.779,7.658-10.416,11.262
				c-2.91,2.91-5.938,5.744-9.08,8.387c-3.904,3.41-8.01,6.622-12.217,9.614c3.906,3.521,8.002,6.856,12.217,10.075
				c4.213-3.178,8.311-6.514,12.256-10.034c3.145-2.759,6.17-5.627,9.08-8.619c3.637-3.638,7.082-7.433,10.418-11.372
				c2.643-3.143,5.168-6.354,7.625-9.69c3.025-4.097,5.861-8.311,8.578-12.676c7.049-11.371,12.984-23.587,17.541-36.421
				c2.031-5.627,3.795-11.413,5.285-17.308c1.188-4.674,2.182-9.423,2.984-14.206c1.037-5.896,1.799-11.907,2.258-18.001
				c0.385-4.825,0.576-9.725,0.576-14.632v-0.268c0-6.163-0.309-12.291-0.877-18.304L524.181,343.738z"/>
			<path fill="#0C95D3" d="M428.96,475.937c-2.684-3.103-5.209-6.321-7.584-9.615c-3.061-4.138-5.936-8.386-8.619-12.792
				c-7.467-12.291-13.52-25.578-17.809-39.633c-1.648-5.326-3.027-10.72-4.174-16.237c-0.879-4.406-1.646-8.847-2.182-13.328
				c-0.729-5.627-1.188-11.337-1.305-17.115c-0.074-1.723-0.115-3.445-0.115-5.168c0-2.91,0.074-5.82,0.232-8.729v-0.041
				c4.098-2.031,8.311-3.871,12.641-5.477c5.168-1.915,10.494-3.563,15.936-4.9c4.174-0.995,8.428-1.798,12.752-2.416
				c5.174-0.769,10.418-1.229,15.783-1.379c1.305-0.041,2.643-0.041,3.947-0.041s2.643,0,3.945,0.041
				c5.361,0.15,10.611,0.61,15.777,1.379c4.332,0.611,8.58,1.414,12.76,2.416c5.434,1.338,10.76,2.985,15.934,4.9
				c-0.494-5.744-1.303-11.413-2.373-17.006c-5.402-1.723-10.92-3.103-16.588-4.214c-4.33-0.845-8.736-1.496-13.211-1.956
				c-5.326-0.577-10.686-0.879-16.162-0.879h-0.15c-5.477,0-10.844,0.309-16.162,0.879c-4.482,0.46-8.887,1.111-13.211,1.956
				c-5.668,1.111-11.188,2.491-16.588,4.214c-4.521,1.413-8.922,3.026-13.252,4.865h-0.041c-5.668,2.375-11.104,5.092-16.395,8.077
				c-0.578,6.013-0.879,12.141-0.879,18.304v0.268c0,4.9,0.191,9.8,0.576,14.632c0.459,6.087,1.229,12.099,2.258,18.001
				c0.803,4.79,1.799,9.498,3.027,14.172c1.453,5.895,3.219,11.68,5.25,17.308c4.557,12.827,10.492,25.043,17.582,36.421
				c2.684,4.365,5.518,8.579,8.578,12.676c2.416,3.328,4.941,6.547,7.625,9.69c3.293,3.946,6.779,7.775,10.377,11.413
				c4.254-2.91,8.352-6.088,12.256-9.423c-3.637-3.604-7.123-7.351-10.418-11.262H428.96z"/>
			<path fill="#FFFFFF" d="M448.457,435.46c3.178-4.976,6.055-10.184,8.58-15.585c3.602-7.584,6.471-15.586,8.619-23.855
				c1.229-4.9,2.223-9.917,2.91-15.05c-4.941-1.036-10-1.688-15.168-1.956c-1.646-0.075-3.293-0.117-4.941-0.117
				c-1.646,0-3.293,0.042-4.941,0.117c-5.166,0.268-10.225,0.92-15.166,1.956c0.686,5.133,1.688,10.149,2.91,15.05
				c2.148,8.27,5.016,16.278,8.619,23.855C442.404,425.276,445.281,430.484,448.457,435.46z"/>
			<path fill="#FFFFFF" d="M416.402,384.298c-5.018,1.688-9.883,3.829-14.48,6.32c0.918,5.326,2.105,10.535,3.527,15.661
				c3.828,13.63,9.381,26.58,16.395,38.528c2.643,4.557,5.518,8.963,8.578,13.177c2.416,3.369,4.982,6.588,7.625,9.725
				c3.295,3.904,6.781,7.658,10.418,11.221c3.637-3.563,7.123-7.316,10.418-11.221c2.643-3.144,5.209-6.355,7.625-9.725
				c3.066-4.214,5.936-8.62,8.578-13.177c7.006-11.948,12.564-24.892,16.395-38.528c1.414-5.133,2.602-10.342,3.521-15.661
				c0.768-4.248,1.338-8.503,1.764-12.826v-0.041c0.459-5.168,0.727-10.418,0.727-15.702v-0.803
				c-4.982-2.107-10.15-3.905-15.434-5.401c-4.063-1.112-8.236-2.031-12.449-2.759c-5.059-0.845-10.227-1.414-15.477-1.647
				c-1.873-0.075-3.754-0.116-5.668-0.116s-3.795,0.041-5.668,0.116c-5.25,0.227-10.418,0.804-15.477,1.682
				c-4.256,0.687-8.387,1.605-12.449,2.718v0.041c-5.326,1.455-10.459,3.253-15.434,5.401v0.769c0,5.284,0.268,10.534,0.727,15.702
				c4.75-2.334,9.732-4.331,14.898-5.971c3.947-1.229,8.002-2.258,12.141-3.061c4.941-0.995,10.033-1.606,15.242-1.874
				c1.99-0.151,3.98-0.192,6.012-0.192s4.021,0.041,6.012,0.192c5.209,0.268,10.303,0.879,15.244,1.874
				c4.137,0.803,8.193,1.839,12.139,3.061c-0.268,4.214-0.727,8.386-1.338,12.483v0.041c-0.768,5.168-1.797,10.185-3.102,15.126
				c-2.951,11.488-7.281,22.441-12.758,32.667c-2.602,4.865-5.477,9.573-8.578,14.089c-2.375,3.486-4.941,6.856-7.625,10.15
				c-2.684-3.294-5.25-6.664-7.625-10.15c-3.102-4.516-5.977-9.23-8.578-14.089c-5.477-10.226-9.807-21.179-12.758-32.667
				c-1.305-4.941-2.334-9.958-3.102-15.126L416.402,384.298z"/>
		</g>
		<g>
			<rect x="301.189" y="357.903" fill="#FFFFFF" width="22.982" height="121.596"/>
			<path fill="#FFFFFF" d="M125.075,358.706v79.04c0,12.463-10.15,22.612-22.613,22.612c-6.238,0-11.873-2.539-15.977-6.636
				L70.22,469.987c8.249,8.249,19.648,13.354,32.235,13.354s23.985-5.105,32.234-13.354s13.355-19.648,13.355-32.234v-79.04h-22.983
				L125.075,358.706z"/>
			<path fill="#FFFFFF" d="M204.175,447.594c-15.928-15.929-15.928-41.85,0-57.778c15.929-15.929,41.85-15.929,57.778,0l0,0
				l16.251-16.251l0,0c-24.933-24.933-65.348-24.933-90.28,0s-24.933,65.348,0,90.28s65.348,24.933,90.28,0l-16.251-16.251
				C246.025,463.522,220.104,463.522,204.175,447.594L204.175,447.594z"/>
		</g>
	</g>
	<g>
		<path fill="#FFFFFF" d="M523.201,464.819v1.394h3.932v12.867h1.523v-12.867h3.898v-1.394h-9.348H523.201z"/>
		<polygon fill="#FFFFFF" points="547.666,464.819 547.666,479.08 546.115,479.08 546.115,467.77 541.359,474.709 541.228,474.709 
			536.48,467.722 536.48,479.08 534.908,479.08 534.908,464.819 536.287,464.819 541.298,472.142 546.3,464.819 		"/>
	</g>
</g>
<g>
	<path fill="#FFFFFF" d="M85.428,557.261H73.713v-35.92h11.715c3.797,0,7.101,0.764,9.91,2.292c2.813,1.528,4.991,3.633,6.533,6.313
		c1.546,2.686,2.32,5.797,2.32,9.334l0,0c0,3.504-0.773,6.613-2.32,9.326c-1.542,2.718-3.72,4.841-6.533,6.369
		C92.529,556.5,89.226,557.261,85.428,557.261L85.428,557.261z M80.274,527.127v24.35h5.305c2.443,0,4.555-0.506,6.334-1.517
		c1.784-1.012,3.175-2.425,4.173-4.241c0.997-1.816,1.496-3.963,1.496-6.438l0,0c0-2.508-0.499-4.662-1.496-6.465
		c-0.998-1.798-2.389-3.196-4.173-4.193c-1.78-0.997-3.891-1.496-6.334-1.496l0,0H80.274z M116.544,557.844L116.544,557.844
		c-1.83,0-3.42-0.307-4.77-0.919c-1.35-0.609-2.395-1.485-3.136-2.629c-0.741-1.14-1.112-2.464-1.112-3.974l0,0
		c0-1.445,0.323-2.74,0.968-3.885c0.641-1.139,1.638-2.095,2.992-2.868c1.35-0.773,3.052-1.32,5.106-1.641l0,0l8.585-1.399v4.824
		l-7.377,1.256c-1.254,0.225-2.187,0.625-2.8,1.201c-0.608,0.581-0.913,1.338-0.913,2.271l0,0c0,0.896,0.345,1.61,1.036,2.142
		c0.691,0.53,1.551,0.796,2.581,0.796l0,0c1.318,0,2.482-0.281,3.493-0.845c1.016-0.563,1.805-1.343,2.368-2.34
		c0.563-0.993,0.844-2.084,0.844-3.273l0,0v-6.753c0-1.126-0.444-2.065-1.332-2.82c-0.883-0.755-2.047-1.133-3.493-1.133l0,0
		c-1.35,0-2.546,0.361-3.589,1.084c-1.047,0.724-1.812,1.68-2.292,2.869l0,0l-5.161-2.505c0.513-1.382,1.325-2.581,2.437-3.597
		c1.107-1.011,2.416-1.805,3.925-2.381c1.515-0.581,3.155-0.872,4.921-0.872l0,0c2.155,0,4.051,0.394,5.689,1.181
		c1.638,0.787,2.917,1.881,3.836,3.28c0.915,1.4,1.373,3.031,1.373,4.894l0,0v17.452h-5.978v-4.481l1.345-0.097
		c-0.672,1.126-1.476,2.066-2.409,2.821c-0.934,0.755-1.995,1.333-3.185,1.736C119.308,557.643,117.99,557.844,116.544,557.844z
		 M139.562,567.871L139.562,567.871c-0.709,0-1.4-0.055-2.072-0.164c-0.677-0.114-1.288-0.316-1.833-0.604l0,0v-5.257
		c0.417,0.097,0.922,0.192,1.517,0.288c0.595,0.097,1.148,0.145,1.661,0.145l0,0c1.451,0,2.505-0.329,3.164-0.988
		s1.244-1.535,1.757-2.629l0,0l1.736-4.049l-0.096,5.306l-11.427-28.886h6.794l8.009,21.315h-2.416l7.961-21.315h6.842
		l-11.426,28.886c-0.673,1.67-1.492,3.1-2.457,4.289s-2.082,2.098-3.349,2.725C142.655,567.557,141.2,567.871,139.562,567.871z
		 M173.808,557.844L173.808,557.844c-2.022,0-3.781-0.45-5.277-1.352s-2.638-2.155-3.425-3.761c-0.787-1.606-1.18-3.486-1.18-5.642
		l0,0v-16.059h6.313v15.53c0,1.094,0.217,2.05,0.652,2.868c0.435,0.819,1.062,1.462,1.881,1.929c0.819,0.467,1.743,0.7,2.772,0.7
		l0,0c1.029,0,1.947-0.233,2.752-0.7c0.801-0.467,1.427-1.118,1.88-1.956c0.448-0.832,0.672-1.827,0.672-2.985l0,0v-15.386h6.314
		v26.229h-5.978v-5.154l0.535,0.913c-0.613,1.605-1.62,2.812-3.02,3.616C177.305,557.442,175.674,557.844,173.808,557.844z
		 M200.827,557.844L200.827,557.844c-1.835,0-3.427-0.307-4.777-0.919c-1.35-0.609-2.393-1.485-3.129-2.629
		c-0.741-1.14-1.112-2.464-1.112-3.974l0,0c0-1.445,0.323-2.74,0.968-3.885c0.641-1.139,1.636-2.095,2.985-2.868
		s3.054-1.32,5.113-1.641l0,0l8.585-1.399v4.824l-7.377,1.256c-1.254,0.225-2.187,0.625-2.8,1.201
		c-0.608,0.581-0.913,1.338-0.913,2.271l0,0c0,0.896,0.345,1.61,1.036,2.142c0.691,0.53,1.549,0.796,2.574,0.796l0,0
		c1.322,0,2.489-0.281,3.5-0.845c1.011-0.563,1.798-1.343,2.361-2.34c0.563-0.993,0.844-2.084,0.844-3.273l0,0v-6.753
		c0-1.126-0.442-2.065-1.325-2.82s-2.047-1.133-3.493-1.133l0,0c-1.354,0-2.553,0.361-3.596,1.084
		c-1.043,0.724-1.807,1.68-2.292,2.869l0,0l-5.154-2.505c0.513-1.382,1.322-2.581,2.43-3.597c1.112-1.011,2.422-1.805,3.932-2.381
		c1.51-0.581,3.15-0.872,4.921-0.872l0,0c2.15,0,4.047,0.394,5.689,1.181c1.638,0.787,2.914,1.881,3.829,3.28
		c0.915,1.4,1.373,3.031,1.373,4.894l0,0v17.452h-5.978v-4.481l1.352-0.097c-0.677,1.126-1.48,2.066-2.409,2.821
		c-0.934,0.755-1.995,1.333-3.185,1.736C203.59,557.643,202.272,557.844,200.827,557.844z M226.974,557.261h-6.313v-26.229h5.929
		v5.16l-0.48-0.912c0.609-1.579,1.613-2.777,3.013-3.597c1.396-0.818,3.027-1.229,4.894-1.229l0,0c1.926,0,3.637,0.419,5.133,1.256
		c1.496,0.833,2.661,1.997,3.493,3.493c0.837,1.496,1.256,3.224,1.256,5.182l0,0v16.876h-6.314v-15.38
		c0-1.157-0.226-2.152-0.679-2.985c-0.448-0.837-1.066-1.489-1.853-1.956s-1.711-0.699-2.772-0.699l0,0
		c-1.029,0-1.947,0.232-2.752,0.699c-0.801,0.467-1.428,1.119-1.88,1.956c-0.449,0.833-0.673,1.828-0.673,2.985l0,0V557.261z"/>
</g>
</svg>
